<svg width="130" height="24" viewBox="0 0 130 24" fill="none" xmlns="http://www.w3.org/2000/svg">
<path fill-rule="evenodd" clip-rule="evenodd" d="M115.498 1.62617L115.498 11.7737L123.379 8.0742L123.379 1.62623H129.202V23.5136H123.379L123.379 15.1189L115.498 18.8184L115.498 23.5139H109.676V1.62617H115.498ZM22.2873 0L11.1551 11.144L0 0.00411192V7.52159L11.1532 18.7435L16.9613 12.9506V23.6879H22.2873V0ZM39.178 1.62617L30.1635 23.5139H36.3421L38.5084 18.0511L41.8938 9.71199L47.8434 23.5139H54.07L44.414 1.62617H39.178ZM56.1858 6.61409H63.2453V23.5137H69.0682V6.61409H76.128V1.6258H56.1858V6.61409ZM93.667 6.30035C95.3348 6.30035 96.9012 6.94878 98.0767 8.1255L98.7768 8.8265L102.464 5.13453L101.765 4.43425C99.6044 2.27192 96.7288 1.08126 93.667 1.08126C90.605 1.08126 87.7294 2.27192 85.5692 4.43425C81.1042 8.90391 81.1042 16.1768 85.5692 20.6468C87.7294 22.8093 90.605 24 93.667 24C96.7288 24 99.6044 22.8093 101.765 20.6468L102.464 19.9465L98.7768 16.2546L98.0767 16.9554C96.9012 18.1321 95.3348 18.7806 93.667 18.7806C91.999 18.7806 90.4326 18.1321 89.2572 16.9554C88.0814 15.7783 87.4338 14.2102 87.4338 12.5403C87.4338 10.8708 88.0814 9.30258 89.2572 8.1255C90.4326 6.94878 91.999 6.30035 93.667 6.30035Z" fill="white"/>
</svg>
